<svg width="32" height="32" viewBox="0 0 32 32" fill="none" xmlns="http://www.w3.org/2000/svg">
<rect x="1" y="1" width="30" height="30" rx="15" fill="#F4F4F4"/>
<rect x="1" y="1" width="30" height="30" rx="15" stroke="#DCDCDC" stroke-width="2"/>
<path d="M14.0606 22.4981L9.75848 22.5909C9.54077 22.5957 9.3937 22.4486 9.39878 22.2312L9.49158 17.9291C9.49484 17.7778 9.57208 17.6129 9.69984 17.4852L17.0025 10.1825C17.2285 9.95649 17.5452 9.90599 17.7098 10.0706L21.9194 14.2802C22.0837 14.4445 22.034 14.7611 21.8075 14.9875L14.5049 22.2902C14.3766 22.4184 14.2125 22.4955 14.0609 22.4984L14.0606 22.4981Z" fill="#A4A4A4"/>
<path d="M24.6819 11.6827L20.3171 7.31786C20.1927 7.19343 19.953 7.23136 19.7818 7.40259L18.6149 8.56943C18.4437 8.74066 18.4058 8.98033 18.5302 9.10476L22.895 13.4696C23.0194 13.594 23.2591 13.5561 23.4303 13.3848L24.5972 12.218C24.7684 12.0468 24.8063 11.8071 24.6819 11.6827Z" fill="#A4A4A4"/>
</svg>
